<svg id="Layer_1" data-name="Layer 1" xmlns="http://www.w3.org/2000/svg" viewBox="0 0 31.83 28"><defs><style>.cls-1{fill:#a39376;fill-rule:evenodd;}</style></defs><title>concepting</title><path class="cls-1" d="M268,1095h6.83a2,2,0,0,1,2,2v6a2,2,0,0,1-2,2H268a2,2,0,0,1-2-2v-6A2,2,0,0,1,268,1095Z" transform="translate(-250 -1095)"/><path class="cls-1" d="M257,1117.15c2.23,0.3,4,1.48,4,2.89,0,1.63-2.24,3-5,3s-5-1.32-5-3c0-1.43,1.72-2.62,4-2.9V1111h-3s-2-.33-2-2v-7s-0.17-3.92,6.17-3.92c0,0,5.83,0,5.83,3.83V1109a2.14,2.14,0,0,1-2.08,2H257v6.15Z" transform="translate(-250 -1095)"/><path class="cls-1" d="M278,1100.92h1.83a2,2,0,0,1,2,2v3.92a2.17,2.17,0,0,1-2.08,2.17H278v12.08a2.11,2.11,0,0,1-2.17,1.92h-1.17s-2.75,0-2.75-2.08v-6s0.17-.92-0.42-0.92c0,0-.5-0.08-0.5,1v6a1.81,1.81,0,0,1-1.92,1.92h-2.17a1.67,1.67,0,0,1-1.92-1.83V1109h-2v-7.92h1.83l0.08,3.92a0.9,0.9,0,0,0,.92.92H277s1,0.33,1-.92v-4.08Z" transform="translate(-250 -1095)"/></svg>