<svg id="Layer_1" data-name="Layer 1" xmlns="http://www.w3.org/2000/svg" viewBox="0 0 30 28"><defs><style>.cls-1{fill:#a39376;}.cls-1,.cls-2{fill-rule:evenodd;}.cls-2{fill:#fff;}</style></defs><title>finalizing</title><path class="cls-1" d="M999,1093h5a3,3,0,0,1,3,3v5a3,3,0,0,1-3,3h-5a3,3,0,0,1-3-3v-5A3,3,0,0,1,999,1093Z" transform="translate(-977 -1093)"/><path class="cls-2" d="M1001.48,1096.94a1.55,1.55,0,1,1-1.55,1.55A1.55,1.55,0,0,1,1001.48,1096.94Z" transform="translate(-977 -1093)"/><path class="cls-1" d="M991.41,1107.94a5.47,5.47,0,1,1-5.47,5.47A5.47,5.47,0,0,1,991.41,1107.94Z" transform="translate(-977 -1093)"/><path class="cls-2" d="M991.47,1108.81a4.53,4.53,0,1,1-4.53,4.53A4.53,4.53,0,0,1,991.47,1108.81Z" transform="translate(-977 -1093)"/><path class="cls-1" d="M991.44,1110.88a2.5,2.5,0,1,1-2.5,2.5A2.5,2.5,0,0,1,991.44,1110.88Z" transform="translate(-977 -1093)"/><path class="cls-1" d="M983.12,1102h11.81a3,3,0,0,0,3.06,3.06l7-.06a2,2,0,0,1-2,2H992.94a1.14,1.14,0,0,0,1.08-1.25l0-1.56a1.31,1.31,0,0,0-1.13-1.23h-3.87a0.93,0.93,0,0,0-1.06,1v2a1.1,1.1,0,0,0,1,1.05h-9a2,2,0,0,1-2-2v-1l4,0A3.15,3.15,0,0,0,983.12,1102Z" transform="translate(-977 -1093)"/><path class="cls-1" d="M978,1101h3a1,1,0,1,1,0,2h-3A1,1,0,1,1,978,1101Z" transform="translate(-977 -1093)"/><path class="cls-1" d="M990,1104h2a1,1,0,1,1,0,2h-2A1,1,0,0,1,990,1104Z" transform="translate(-977 -1093)"/><path class="cls-1" d="M998.06,1113.06a5.76,5.76,0,0,0-3-5.06H1004a1,1,0,0,1,1,1v11a1,1,0,0,1-1,1H979a1,1,0,0,1-1-1v-11a1,1,0,0,1,1-1h9s-3.06.81-3.06,5.06,2.78,6.94,6.09,6.94S998.06,1118.53,998.06,1113.06Z" transform="translate(-977 -1093)"/></svg>