<svg id="Layer_1" data-name="Layer 1" xmlns="http://www.w3.org/2000/svg" viewBox="0 0 27 26.69"><defs><style>.cls-1{fill:#a39376;}.cls-1,.cls-2{fill-rule:evenodd;}.cls-2{fill:#fff;}</style></defs><title>packaging</title><path class="cls-1" d="M1220.26,1121.77s4.13,3.63,8.45-4c0,0,9.71,5.53,14.64-1.2s3.37-20.62,3.37-20.62-15.12-.72-19.75,6.11c-3.14,5.08-3.65,10.15.65,14.68,0,0-1.75,5.34-6.46,4.12C1221.15,1120.87,1219.21,1120.57,1220.26,1121.77Z" transform="translate(-1219.95 -1095.95)"/><path class="cls-2" d="M1228.25,1116.74l2.24-3a9.79,9.79,0,0,0-.6-8.22s2.72,1.21,1.83,7.34l3.29-4.48a16.57,16.57,0,0,0-1.83-6.14,6.11,6.11,0,0,1,2.54,5.08s2.24-2.09,2.24-3.59,0-3.94,0-3.94,1,2.73.83,3.33c0,0,3-2.53,4.67-2.53l-3.92,3.15,3.74,1.4s-4-.73-4.22-0.45l-2.5,3.43a9.82,9.82,0,0,1,5.39,1s-5.94-.39-6.69.36l-2.43,3.73s4.43-.56,6.82.94c0,0-7.37-1.35-8.59,1l-1.49,1.79S1228.11,1117.63,1228.25,1116.74Z" transform="translate(-1219.95 -1095.95)"/></svg>