<svg id="Layer_1" data-name="Layer 1" xmlns="http://www.w3.org/2000/svg" viewBox="0 0 31 29.98"><defs><style>.cls-1{fill:#a39376;}.cls-1,.cls-2{fill-rule:evenodd;}.cls-2{fill:#fff;}</style></defs><title>preparing</title><path class="cls-1" d="M496,1094h25a3,3,0,0,1,3,3v17a3,3,0,0,1-3,3H496a3,3,0,0,1-3-3v-17A3,3,0,0,1,496,1094Z" transform="translate(-493 -1094)"/><path class="cls-1" d="M504,1118.08V1122l-1.92,1a0.67,0.67,0,0,0,.67,1H514s1.33-.42.92-0.83a13,13,0,0,0-2-1.23V1118Z" transform="translate(-493 -1094)"/><path class="cls-2" d="M497,1096h23a2,2,0,0,1,2,2v12a2,2,0,0,1-2,2H497a2,2,0,0,1-2-2v-12A2,2,0,0,1,497,1096Z" transform="translate(-493 -1094)"/><path class="cls-2" d="M508.31,1113.63a5.32,5.32,0,0,1,.71-0.41,2.25,2.25,0,0,1,.53.2c0.15,0.12.51,0.46,0.37,0.56-0.43,0-1,0-1,.49,0,0.84,1,.57,1,0.57a5.1,5.1,0,0,1-.33.57,1.5,1.5,0,0,1-.67.45,2.8,2.8,0,0,1-.5-0.24,1.52,1.52,0,0,1-.71.11,1.48,1.48,0,0,1-.82-1.46c0-.72.13-1.51,1-1.34C508,1113.11,508.21,1113.63,508.31,1113.63Z" transform="translate(-493 -1094)"/><path class="cls-2" d="M509,1112.22a1.69,1.69,0,0,0-.62.78S509.41,1112.81,509,1112.22Z" transform="translate(-493 -1094)"/></svg>